<svg xmlns="http://www.w3.org/2000/svg" viewBox="0 0 500 500" width="500" height="500" role="img" aria-label="MEDSWIFT EXPRESS Facebook Profile Logo">
  <defs>
    <linearGradient id="fb-bg" x1="0%" y1="0%" x2="100%" y2="100%">
      <stop offset="0%" stop-color="#1e4d8c"/>
      <stop offset="100%" stop-color="#1B3C6E"/>
    </linearGradient>
    <linearGradient id="fb-shield" x1="20%" y1="0%" x2="80%" y2="100%">
      <stop offset="0%" stop-color="#2255a4"/>
      <stop offset="100%" stop-color="#163260"/>
    </linearGradient>
    <linearGradient id="fb-swoosh" x1="0%" y1="0%" x2="100%" y2="0%">
      <stop offset="0%" stop-color="#CC1F35"/>
      <stop offset="100%" stop-color="#A01828"/>
    </linearGradient>
    <linearGradient id="fb-hl" x1="0%" y1="0%" x2="0%" y2="70%">
      <stop offset="0%" stop-color="#ffffff" stop-opacity="0.15"/>
      <stop offset="100%" stop-color="#ffffff" stop-opacity="0"/>
    </linearGradient>
  </defs>

  <rect width="500" height="500" rx="0" fill="url(#fb-bg)"/>
  <rect x="0" y="0" width="500" height="6" fill="#CC1F35"/>
  <rect x="0" y="494" width="500" height="6" fill="#CC1F35"/>

  <g transform="translate(140, 52) scale(2.2)">
    <path d="M50,3 L97,17 L97,63 C97,91 77,108 50,118 C23,108 3,91 3,63 L3,17 Z" fill="url(#fb-shield)"/>
    <path d="M50,8 L92,21 L92,63 C92,88 74,103 50,112 C26,103 8,88 8,63 L8,21 Z" fill="none" stroke="#fff" stroke-width="0.6" stroke-opacity="0.18"/>
    <path d="M50,8 L92,21 L92,48 C78,28 50,20 8,36 L8,21 Z" fill="url(#fb-hl)"/>
    <path d="M3,57 L97,41 L97,54 L3,70 Z" fill="url(#fb-swoosh)"/>
    <path d="M18,108 L18,65 L29,65 L50,89 L71,65 L82,65 L82,108 L73,108 L73,78 L51,97 L49,97 L27,78 L27,108 Z" fill="#ffffff"/>
  </g>

  <text x="250" y="373" font-family="'Arial Black','Arial Bold',Arial,sans-serif" font-size="58" font-weight="900" letter-spacing="-2" text-anchor="middle">
    <tspan fill="#ffffff">MED</tspan><tspan fill="#FF3D52">SWIFT</tspan>
  </text>
  <text x="250" y="408" font-family="'Arial Black','Arial Bold',Arial,sans-serif" font-size="17" font-weight="900" letter-spacing="10" fill="#ffffff" text-anchor="middle" opacity="0.82">EXPRESS</text>
  <rect x="192" y="418" width="116" height="3" rx="1.5" fill="#CC1F35"/>
</svg>
